<?xml version="1.0" encoding="UTF-8"?>
<!DOCTYPE svg PUBLIC "-//W3C//DTD SVG 1.1//EN" "http://www.w3.org/Graphics/SVG/1.1/DTD/svg11.dtd">
<svg xmlns="http://www.w3.org/2000/svg" version="1.1" width="821px" height="289px" style="shape-rendering:geometricPrecision; text-rendering:geometricPrecision; image-rendering:optimizeQuality; fill-rule:evenodd; clip-rule:evenodd" xmlns:xlink="http://www.w3.org/1999/xlink">
<g><path style="opacity:1" fill="#fbfaf8" d="M -0.5,-0.5 C 273.167,-0.5 546.833,-0.5 820.5,-0.5C 820.5,95.8333 820.5,192.167 820.5,288.5C 546.833,288.5 273.167,288.5 -0.5,288.5C -0.5,192.167 -0.5,95.8333 -0.5,-0.5 Z"/></g>
<g><path style="opacity:1" fill="#2f373b" d="M 24.5,252.5 C 25.8333,188.833 25.8333,125.167 24.5,61.5C 26.4843,52.6793 31.8176,46.846 40.5,44C 55.7754,42.5646 71.1087,42.0646 86.5,42.5C 88.4085,21.0532 100.075,11.0532 121.5,12.5C 142.777,10.7909 154.777,20.4575 157.5,41.5C 172.558,41.0662 187.558,41.5662 202.5,43C 211.07,45.9038 216.57,51.7372 219,60.5C 219.667,123.833 219.667,187.167 219,250.5C 216.692,263.743 208.858,271.243 195.5,273C 146.5,273.667 97.5,273.667 48.5,273C 36.0017,271.329 28.0017,264.496 24.5,252.5 Z"/></g>
<g><path style="opacity:1" fill="#f4f4f3" d="M 113.5,34.5 C 119.176,34.3339 124.843,34.5006 130.5,35C 134.485,38.3807 134.485,41.714 130.5,45C 124.5,45.6667 118.5,45.6667 112.5,45C 109.711,41.2252 110.045,37.7252 113.5,34.5 Z"/></g>
<g><path style="opacity:1" fill="#f8f7f6" d="M 197.5,85.5 C 199.896,88.4067 200.562,91.5734 199.5,95C 188.505,95.4998 177.505,95.6665 166.5,95.5C 165.206,83.5424 165.206,71.5424 166.5,59.5C 171.833,60.6676 176.499,63.1676 180.5,67C 186.769,72.7628 192.436,78.9295 197.5,85.5 Z"/></g>
<g><path style="opacity:1" fill="#0e1619" d="M 77.5,83.5 C 74.383,83.3577 71.883,82.0244 70,79.5C 69.5006,73.8431 69.3339,68.1764 69.5,62.5C 62.443,62.24 55.443,62.5733 48.5,63.5C 48.0618,63.5654 47.7284,63.3988 47.5,63C 48.1667,62.6667 48.8333,62.3333 49.5,62C 56.5,61.3333 63.5,61.3333 70.5,62C 71.3113,67.4397 71.478,72.9397 71,78.5C 72.214,80.0488 73.714,81.2155 75.5,82C 100.833,82.3333 126.167,82.6667 151.5,83C 126.836,83.5 102.169,83.6666 77.5,83.5 Z"/></g>
<g><path style="opacity:1" fill="#000103" d="M 45.5,66.5 C 44.1703,127.488 44.1703,188.488 45.5,249.5C 44.7784,249.082 44.2784,248.416 44,247.5C 43.3333,187.5 43.3333,127.5 44,67.5C 44.3333,66.8333 44.6667,66.1667 45,65.5C 45.3988,65.7284 45.5654,66.0618 45.5,66.5 Z"/></g>
<g><path style="opacity:1" fill="#2d3539" d="M 305.5,90.5 C 335.003,92.5127 346.17,107.846 339,136.5C 337.043,141.95 333.543,145.95 328.5,148.5C 324.367,150.489 320.033,151.989 315.5,153C 307.323,153.171 299.323,153.671 291.5,154.5C 290.506,164.653 290.172,174.986 290.5,185.5C 284.833,185.5 279.167,185.5 273.5,185.5C 273.5,154.167 273.5,122.833 273.5,91.5C 284.346,91.8278 295.013,91.4944 305.5,90.5 Z"/></g>
<g><path style="opacity:1" fill="#222628" d="M 305.5,90.5 C 295.013,91.4944 284.346,91.8278 273.5,91.5C 273.5,122.833 273.5,154.167 273.5,185.5C 279.167,185.5 284.833,185.5 290.5,185.5C 290.172,174.986 290.506,164.653 291.5,154.5C 298.167,154.5 304.833,154.5 311.5,154.5C 305.021,155.491 298.354,155.824 291.5,155.5C 291.5,165.833 291.5,176.167 291.5,186.5C 284.833,186.5 278.167,186.5 271.5,186.5C 271.5,154.5 271.5,122.5 271.5,90.5C 282.833,90.5 294.167,90.5 305.5,90.5 Z"/></g>
<g><path style="opacity:1" fill="#0a1013" d="M 166.5,95.5 C 177.505,95.6665 188.505,95.4998 199.5,95C 200.562,91.5734 199.896,88.4067 197.5,85.5C 197.81,84.2617 198.31,84.2617 199,85.5C 200.167,87.8333 201.333,90.1667 202.5,92.5C 201.96,93.7481 201.293,94.9148 200.5,96C 188.992,96.8259 177.659,96.6593 166.5,95.5 Z"/></g>
<g><path style="opacity:1" fill="#12181b" d="M 503.5,99.5 C 503.666,105.176 503.499,110.843 503,116.5C 502.501,111.177 502.334,105.844 502.5,100.5C 497.5,100.5 492.5,100.5 487.5,100.5C 487.821,106.026 487.488,111.36 486.5,116.5C 486.5,110.5 486.5,104.5 486.5,98.5C 492.358,98.1778 498.025,98.5111 503.5,99.5 Z"/></g>
<g><path style="opacity:1" fill="#060c0f" d="M 157.5,106.5 C 171.885,107.082 185.552,107.748 198.5,108.5C 185.496,108.667 172.496,108.5 159.5,108C 158.584,107.722 157.918,107.222 157.5,106.5 Z"/></g>
<g><path style="opacity:1" fill="#2f373b" d="M 503.5,99.5 C 504.489,104.975 504.822,110.642 504.5,116.5C 508.833,116.5 513.167,116.5 517.5,116.5C 513.353,117.325 509.019,117.825 504.5,118C 509.155,118.499 513.821,118.666 518.5,118.5C 518.5,122.833 518.5,127.167 518.5,131.5C 513.968,131.182 509.634,131.515 505.5,132.5C 504.506,142.987 504.172,153.654 504.5,164.5C 503.67,154.008 503.17,143.341 503,132.5C 502.333,143.5 502.333,154.5 503,165.5C 503.278,166.416 503.778,167.082 504.5,167.5C 509.035,170.227 514.035,171.227 519.5,170.5C 519.805,175.762 519.471,180.928 518.5,186C 508.538,188.924 499.372,187.424 491,181.5C 489.139,179.112 487.806,176.446 487,173.5C 487.152,159.463 486.319,145.797 484.5,132.5C 481.713,131.523 478.713,131.19 475.5,131.5C 475.5,127.167 475.5,122.833 475.5,118.5C 479.182,118.665 482.848,118.499 486.5,118C 482.514,117.501 478.514,117.334 474.5,117.5C 478.298,116.517 482.298,116.183 486.5,116.5C 487.488,111.36 487.821,106.026 487.5,100.5C 492.5,100.5 497.5,100.5 502.5,100.5C 502.334,105.844 502.501,111.177 503,116.5C 503.499,110.843 503.666,105.176 503.5,99.5 Z"/></g>
<g><path style="opacity:1" fill="#f9f9f7" d="M 316.5,135.5 C 308.781,138.213 300.781,139.213 292.5,138.5C 291.506,128.347 291.172,118.014 291.5,107.5C 299.784,106.917 307.784,108.084 315.5,111C 323.087,118.835 323.421,127.002 316.5,135.5 Z"/></g>
<g><path style="opacity:1" fill="#2b3337" d="M 392.5,119.5 C 398.119,122.962 401.619,127.962 403,134.5C 403.5,151.497 403.667,168.497 403.5,185.5C 398.833,185.5 394.167,185.5 389.5,185.5C 388.073,183.852 387.24,181.852 387,179.5C 375.792,190.071 363.626,191.237 350.5,183C 340.942,171.884 341.276,161.217 351.5,151C 362.98,146.144 374.98,143.644 387.5,143.5C 388.966,134.467 385.133,129.8 376,129.5C 369.803,129.504 365.637,132.338 363.5,138C 357.843,138.499 352.176,138.666 346.5,138.5C 347.401,128.091 352.735,120.924 362.5,117C 369.418,115.449 376.418,115.116 383.5,116C 387.005,116.119 390.005,117.286 392.5,119.5 Z"/></g>
<g><path style="opacity:1" fill="#03080c" d="M 474.5,117.5 C 478.514,117.334 482.514,117.501 486.5,118C 482.848,118.499 479.182,118.665 475.5,118.5C 475.5,122.833 475.5,127.167 475.5,131.5C 478.713,131.19 481.713,131.523 484.5,132.5C 481.167,132.5 477.833,132.5 474.5,132.5C 474.5,127.5 474.5,122.5 474.5,117.5 Z"/></g>
<g><path style="opacity:1" fill="#121519" d="M 660.5,135.5 C 657.912,130.625 654.246,125.791 649.5,121C 636.982,113.981 625.649,115.481 615.5,125.5C 617.719,121.529 621.052,118.696 625.5,117C 642.871,112.683 654.537,118.849 660.5,135.5 Z"/></g>
<g><path style="opacity:1" fill="#2e363a" d="M 596.5,117.5 C 601.975,116.511 607.642,116.178 613.5,116.5C 612.945,120.012 613.612,123.012 615.5,125.5C 625.649,115.481 636.982,113.981 649.5,121C 654.246,125.791 657.912,130.625 660.5,135.5C 661.738,137.214 662.405,139.214 662.5,141.5C 661.672,147.987 661.172,154.654 661,161.5C 660.057,164.824 659.224,168.157 658.5,171.5C 657.032,176.637 654.032,180.637 649.5,183.5C 649.44,182.957 649.107,182.624 648.5,182.5C 637.209,188.646 626.709,187.646 617,179.5C 616.601,179.728 616.435,180.062 616.5,180.5C 615.604,179.494 614.938,179.494 614.5,180.5C 613.506,190.987 613.172,201.654 613.5,212.5C 608.167,212.5 602.833,212.5 597.5,212.5C 597.832,180.662 597.498,148.996 596.5,117.5 Z"/></g>
<g><path style="opacity:1" fill="#070d12" d="M 517.5,116.5 C 518.117,116.611 518.617,116.944 519,117.5C 519.499,122.489 519.666,127.489 519.5,132.5C 514.833,132.5 510.167,132.5 505.5,132.5C 509.634,131.515 513.968,131.182 518.5,131.5C 518.5,127.167 518.5,122.833 518.5,118.5C 513.821,118.666 509.155,118.499 504.5,118C 509.019,117.825 513.353,117.325 517.5,116.5 Z"/></g>
<g><path style="opacity:1" fill="#2c3539" d="M 581.5,129.5 C 585.1,137.765 586.767,146.432 586.5,155.5C 570.991,155.17 555.658,155.504 540.5,156.5C 540.263,157.791 540.596,158.791 541.5,159.5C 544.44,171.975 552.107,176.142 564.5,172C 566.543,170.292 568.21,168.292 569.5,166C 575.157,165.501 580.824,165.334 586.5,165.5C 586.741,168.794 585.908,171.794 584,174.5C 570.445,189.727 554.612,192.56 536.5,183C 529.103,177.263 524.603,169.763 523,160.5C 519.409,143.215 524.576,129.382 538.5,119C 550.88,113.807 562.88,114.473 574.5,121C 577.447,123.436 579.78,126.269 581.5,129.5 Z"/></g>
<g><path style="opacity:1" fill="#f6f6f4" d="M 550.5,129.5 C 561.905,128.25 568.239,133.25 569.5,144.5C 559.81,144.832 550.144,144.498 540.5,143.5C 541.955,137.395 545.288,132.728 550.5,129.5 Z"/></g>
<g><path style="opacity:1" fill="#02070b" d="M 504.5,164.5 C 504.5,165.5 504.5,166.5 504.5,167.5C 503.778,167.082 503.278,166.416 503,165.5C 502.333,154.5 502.333,143.5 503,132.5C 503.17,143.341 503.67,154.008 504.5,164.5 Z"/></g>
<g><path style="opacity:1" fill="#2b3337" d="M 466.5,128.5 C 466.779,131.118 467.446,133.618 468.5,136C 463.833,136.667 459.167,136.667 454.5,136C 453.717,133.882 452.384,132.382 450.5,131.5C 445.934,129.112 441.267,128.945 436.5,131C 433.311,132.544 432.145,135.044 433,138.5C 434.637,140.81 436.804,142.31 439.5,143C 446.922,144.284 454.256,145.951 461.5,148C 469.585,152.002 473.085,158.502 472,167.5C 469.638,179.858 462.138,186.691 449.5,188C 439.343,189.723 430.01,187.723 421.5,182C 415.687,177.205 413.02,171.039 413.5,163.5C 419.176,163.334 424.843,163.501 430.5,164C 433.132,172.99 439.132,176.323 448.5,174C 453.364,171.654 454.697,167.987 452.5,163C 444.712,160.04 436.712,157.707 428.5,156C 415.36,150.284 411.527,140.784 417,127.5C 424.966,117.174 435.466,113.34 448.5,116C 456.892,117.006 462.892,121.173 466.5,128.5 Z"/></g>
<g><path style="opacity:1" fill="#25282a" d="M 466.5,128.5 C 468.976,131.288 469.976,134.622 469.5,138.5C 464.125,138.828 458.792,138.495 453.5,137.5C 452.487,135.473 451.487,133.473 450.5,131.5C 452.384,132.382 453.717,133.882 454.5,136C 459.167,136.667 463.833,136.667 468.5,136C 467.446,133.618 466.779,131.118 466.5,128.5 Z"/></g>
<g><path style="opacity:1" fill="#0c1115" d="M 316.5,135.5 C 315.547,137.61 313.881,138.777 311.5,139C 304.986,139.82 298.653,139.653 292.5,138.5C 300.781,139.213 308.781,138.213 316.5,135.5 Z"/></g>
<g><path style="opacity:1" fill="#f9f8f7" d="M 625.5,130.5 C 636.151,129.915 642.318,134.915 644,145.5C 645.656,154.188 643.823,162.021 638.5,169C 627.525,174.897 619.691,172.064 615,160.5C 614.116,153.418 614.449,146.418 616,139.5C 618.43,135.566 621.597,132.566 625.5,130.5 Z"/></g>
<g><path style="opacity:1" fill="#1c2023" d="M 729.5,116.5 C 730.117,116.611 730.617,116.944 731,117.5C 731.667,140.167 731.667,162.833 731,185.5C 725.401,186.825 719.901,186.825 714.5,185.5C 714.833,181.5 715.167,181.5 715.5,185.5C 720.167,185.5 724.833,185.5 729.5,185.5C 729.5,162.5 729.5,139.5 729.5,116.5 Z"/></g>
<g><path style="opacity:1" fill="#020305" d="M 782.5,135.5 C 783.966,136.347 784.8,137.68 785,139.5C 785.5,154.83 785.667,170.163 785.5,185.5C 790.833,185.5 796.167,185.5 801.5,185.5C 801.17,169.658 801.504,153.991 802.5,138.5C 802.5,154.5 802.5,170.5 802.5,186.5C 796.5,186.5 790.5,186.5 784.5,186.5C 784.667,171.163 784.5,155.83 784,140.5C 783.392,138.846 782.892,137.179 782.5,135.5 Z"/></g>
<g><path style="opacity:1" fill="#2f373b" d="M 687.5,117.5 C 687.062,117.435 686.728,117.601 686.5,118C 687.325,133.092 687.825,148.259 688,163.5C 688.2,165.32 689.034,166.653 690.5,167.5C 697.286,173.099 703.786,172.765 710,166.5C 710.667,165.167 711.333,163.833 712,162.5C 712.169,147.661 712.669,132.994 713.5,118.5C 713.833,171.833 714.167,171.833 714.5,118.5C 719.179,118.666 723.845,118.499 728.5,118C 723.511,117.501 718.511,117.334 713.5,117.5C 718.64,116.512 723.974,116.179 729.5,116.5C 729.5,139.5 729.5,162.5 729.5,185.5C 724.833,185.5 720.167,185.5 715.5,185.5C 715.167,181.5 714.833,181.5 714.5,185.5C 713.686,183.369 713.186,181.036 713,178.5C 703.572,188.262 692.739,190.095 680.5,184C 675.421,180.01 672.255,174.843 671,168.5C 670.5,151.17 670.333,133.837 670.5,116.5C 676.358,116.178 682.025,116.511 687.5,117.5 Z"/></g>
<g><path style="opacity:1" fill="#020509" d="M 713.5,117.5 C 718.511,117.334 723.511,117.501 728.5,118C 723.845,118.499 719.179,118.666 714.5,118.5C 714.167,171.833 713.833,171.833 713.5,118.5C 713.5,118.167 713.5,117.833 713.5,117.5 Z"/></g>
<g><path style="opacity:1" fill="#020405" d="M 687.5,117.5 C 688.331,132.328 688.831,147.328 689,162.5C 689.608,164.154 690.108,165.821 690.5,167.5C 689.034,166.653 688.2,165.32 688,163.5C 687.825,148.259 687.325,133.092 686.5,118C 686.728,117.601 687.062,117.435 687.5,117.5 Z"/></g>
<g><path style="opacity:1" fill="#2f383c" d="M 802.5,138.5 C 801.504,153.991 801.17,169.658 801.5,185.5C 796.167,185.5 790.833,185.5 785.5,185.5C 785.667,170.163 785.5,154.83 785,139.5C 784.8,137.68 783.966,136.347 782.5,135.5C 777.452,131.526 771.786,130.526 765.5,132.5C 763.983,132.511 762.816,133.177 762,134.5C 760.725,136.717 759.725,139.051 759,141.5C 758.5,156.163 758.333,170.83 758.5,185.5C 753.5,185.5 748.5,185.5 743.5,185.5C 743.5,163.167 743.5,140.833 743.5,118.5C 747.833,118.5 752.167,118.5 756.5,118.5C 757.045,122.172 757.378,121.838 757.5,117.5C 758.317,119.969 758.817,122.635 759,125.5C 766.805,115.789 776.638,112.955 788.5,117C 797.299,121.421 801.966,128.588 802.5,138.5 Z"/></g>
<g><path style="opacity:1" fill="#1e2124" d="M 662.5,141.5 C 664.646,152.074 663.313,162.074 658.5,171.5C 659.224,168.157 660.057,164.824 661,161.5C 661.172,154.654 661.672,147.987 662.5,141.5 Z"/></g>
<g><path style="opacity:1" fill="#191f24" d="M 392.5,119.5 C 399.748,122.287 403.914,127.62 405,135.5C 405.5,152.497 405.667,169.497 405.5,186.5C 399.974,186.821 394.64,186.488 389.5,185.5C 394.167,185.5 398.833,185.5 403.5,185.5C 403.667,168.497 403.5,151.497 403,134.5C 401.619,127.962 398.119,122.962 392.5,119.5 Z"/></g>
<g><path style="opacity:1" fill="#0b0e10" d="M 328.5,148.5 C 323.64,152.455 317.973,154.455 311.5,154.5C 304.833,154.5 298.167,154.5 291.5,154.5C 299.323,153.671 307.323,153.171 315.5,153C 320.033,151.989 324.367,150.489 328.5,148.5 Z"/></g>
<g><path style="opacity:1" fill="#000104" d="M 596.5,117.5 C 597.498,148.996 597.832,180.662 597.5,212.5C 602.833,212.5 608.167,212.5 613.5,212.5C 613.172,201.654 613.506,190.987 614.5,180.5C 614.5,191.5 614.5,202.5 614.5,213.5C 608.5,213.5 602.5,213.5 596.5,213.5C 596.5,181.5 596.5,149.5 596.5,117.5 Z"/></g>
<g><path style="opacity:1" fill="#050709" d="M 581.5,129.5 C 584.177,132.994 586.01,136.994 587,141.5C 587.816,146.684 587.65,151.684 586.5,156.5C 571.167,156.5 555.833,156.5 540.5,156.5C 555.658,155.504 570.991,155.17 586.5,155.5C 586.767,146.432 585.1,137.765 581.5,129.5 Z"/></g>
<g><path style="opacity:1" fill="#b0b3b4" d="M 540.5,156.5 C 555.833,156.5 571.167,156.5 586.5,156.5C 571.305,156.839 556.305,157.839 541.5,159.5C 540.596,158.791 540.263,157.791 540.5,156.5 Z"/></g>
<g><path style="opacity:1" fill="#faf9f7" d="M 77.5,83.5 C 101.994,84.4977 126.661,84.831 151.5,84.5C 150.901,91.3914 151.735,98.058 154,104.5C 154.816,105.823 155.983,106.489 157.5,106.5C 157.918,107.222 158.584,107.722 159.5,108C 172.496,108.5 185.496,108.667 198.5,108.5C 198.667,154.835 198.5,201.168 198,247.5C 197.209,248.745 196.709,250.078 196.5,251.5C 195.078,251.709 193.745,252.209 192.5,253C 145.167,253.667 97.8333,253.667 50.5,253C 48.6769,252.003 47.0103,250.836 45.5,249.5C 44.1703,188.488 44.1703,127.488 45.5,66.5C 46.8333,65.8333 47.8333,64.8333 48.5,63.5C 55.443,62.5733 62.443,62.24 69.5,62.5C 69.3339,68.1764 69.5006,73.8431 70,79.5C 71.883,82.0244 74.383,83.3577 77.5,83.5 Z"/></g>
<g><path style="opacity:1" fill="#010204" d="M 173.5,159.5 C 139.573,160.493 105.573,160.826 71.5,160.5C 71.5,159.833 71.8333,159.5 72.5,159.5C 106.413,159.482 140.079,159.482 173.5,159.5 Z"/></g>
<g><path style="opacity:1" fill="#323a3e" d="M 173.5,149.5 C 177.393,152.752 177.393,156.086 173.5,159.5C 140.079,159.482 106.413,159.482 72.5,159.5C 67.305,157.705 66.305,154.538 69.5,150C 104.165,149.5 138.832,149.333 173.5,149.5 Z"/></g>
<g><path style="opacity:1" fill="#1c272c" d="M 173.5,149.5 C 138.832,149.333 104.165,149.5 69.5,150C 66.305,154.538 67.305,157.705 72.5,159.5C 71.8333,159.5 71.5,159.833 71.5,160.5C 64.1084,156.842 63.775,152.676 70.5,148C 104.167,147.333 137.833,147.333 171.5,148C 172.416,148.278 173.082,148.778 173.5,149.5 Z"/></g>
<g><path style="opacity:1" fill="#010508" d="M 68.5,124.5 C 89.1667,124.5 109.833,124.5 130.5,124.5C 109.833,125.833 89.1667,125.833 68.5,124.5 Z"/></g>
<g><path style="opacity:1" fill="#323b3e" d="M 69.5,114.5 C 89.5028,114.333 109.503,114.5 129.5,115C 130.967,117.378 131.967,119.878 132.5,122.5C 132.167,123.5 131.5,124.167 130.5,124.5C 109.833,124.5 89.1667,124.5 68.5,124.5C 66.5726,121.863 66.0726,118.863 67,115.5C 67.6708,114.748 68.5041,114.414 69.5,114.5 Z"/></g>
<g><path style="opacity:1" fill="#080e11" d="M 69.5,114.5 C 89.6625,113.337 109.996,113.171 130.5,114C 133.311,116.406 133.977,119.239 132.5,122.5C 131.967,119.878 130.967,117.378 129.5,115C 109.503,114.5 89.5028,114.333 69.5,114.5 Z"/></g>
<g><path style="opacity:1" fill="#f9f8f7" d="M 383.5,155.5 C 384.833,155.5 386.167,155.5 387.5,155.5C 388.893,170.265 382.226,176.098 367.5,173C 363.139,170.774 361.639,167.274 363,162.5C 364.731,160.383 366.898,158.883 369.5,158C 374.315,157.197 378.981,156.363 383.5,155.5 Z"/></g>
<g><path style="opacity:1" fill="#161a1d" d="M 757.5,117.5 C 757.378,121.838 757.045,122.172 756.5,118.5C 752.167,118.5 747.833,118.5 743.5,118.5C 743.5,140.833 743.5,163.167 743.5,185.5C 748.5,185.5 753.5,185.5 758.5,185.5C 758.333,170.83 758.5,156.163 759,141.5C 759.725,139.051 760.725,136.717 762,134.5C 762.816,133.177 763.983,132.511 765.5,132.5C 762.903,135.356 761.07,138.689 760,142.5C 759.5,157.163 759.333,171.83 759.5,186.5C 753.575,186.808 747.741,186.475 742,185.5C 741.333,162.833 741.333,140.167 742,117.5C 747.266,116.176 752.433,116.176 757.5,117.5 Z"/></g>
<g><path style="opacity:1" fill="#202427" d="M 24.5,61.5 C 25.8333,125.167 25.8333,188.833 24.5,252.5C 23.1769,188.785 23.1769,125.118 24.5,61.5 Z"/></g>
<g><path style="opacity:1" fill="#192328" d="M 71.5,195.5 C 97.9969,194.668 124.664,194.168 151.5,194C 155.872,191.805 156.539,188.805 153.5,185C 125.5,184.333 97.5,184.333 69.5,185C 67.1618,187.542 66.8285,190.375 68.5,193.5C 64.3704,189.332 65.037,185.832 70.5,183C 98.5865,182.017 126.587,182.351 154.5,184C 156.478,186.497 156.978,189.331 156,192.5C 155.097,193.701 153.931,194.535 152.5,195C 125.502,195.5 98.5021,195.667 71.5,195.5 Z"/></g>
<g><path style="opacity:1" fill="#323a3e" d="M 71.5,195.5 C 69.9731,195.573 68.9731,194.906 68.5,193.5C 66.8285,190.375 67.1618,187.542 69.5,185C 97.5,184.333 125.5,184.333 153.5,185C 156.539,188.805 155.872,191.805 151.5,194C 124.664,194.168 97.9969,194.668 71.5,195.5 Z"/></g>
<g><path style="opacity:1" fill="#0a0f11" d="M 649.5,183.5 C 640.426,188.182 631.092,188.682 621.5,185C 619.382,183.951 617.716,182.451 616.5,180.5C 616.435,180.062 616.601,179.728 617,179.5C 626.709,187.646 637.209,188.646 648.5,182.5C 649.107,182.624 649.44,182.957 649.5,183.5 Z"/></g>
<g><path style="opacity:1" fill="#1f272c" d="M 132.5,227.5 C 131.967,224.878 130.967,222.378 129.5,220C 109.5,219.333 89.5,219.333 69.5,220C 68.7562,221.039 67.7562,221.539 66.5,221.5C 67.343,219.827 68.6763,218.66 70.5,218C 89.8333,217.333 109.167,217.333 128.5,218C 132.767,220.024 134.1,223.191 132.5,227.5 Z"/></g>
<g><path style="opacity:1" fill="#333b3f" d="M 132.5,227.5 C 132.167,228.5 131.5,229.167 130.5,229.5C 110.747,229.469 90.7467,229.469 70.5,229.5C 66.0012,228.35 64.6679,225.684 66.5,221.5C 67.7562,221.539 68.7562,221.039 69.5,220C 89.5,219.333 109.5,219.333 129.5,220C 130.967,222.378 131.967,224.878 132.5,227.5 Z"/></g>
<g><path style="opacity:1" fill="#010206" d="M 130.5,229.5 C 110.402,230.825 90.4022,230.825 70.5,229.5C 90.7467,229.469 110.747,229.469 130.5,229.5 Z"/></g>
<g><path style="opacity:1" fill="#1d272d" d="M 45.5,249.5 C 47.0103,250.836 48.6769,252.003 50.5,253C 97.8333,253.667 145.167,253.667 192.5,253C 193.745,252.209 195.078,251.709 196.5,251.5C 195.264,253.828 193.264,254.994 190.5,255C 144.167,255.667 97.8333,255.667 51.5,255C 48.3589,254.285 46.3589,252.452 45.5,249.5 Z"/></g>
</svg>
